HIERARCHY
ROOT Hips
{
  OFFSET 51.0826 95.6231 22.0414
  CHANNELS 6 Xposition Yposition Zposition Zrotation Xrotation Yrotation
  JOINT spine
  {
    OFFSET 0 7.96568 0.458067
    CHANNELS 3 Zrotation Xrotation Yrotation
    JOINT spine1
    {
      OFFSET 0 10.2431 0
      CHANNELS 3 Zrotation Xrotation Yrotation
      JOINT spine2
      {
        OFFSET 0 9.81475 0
        CHANNELS 3 Zrotation Xrotation Yrotation
        JOINT Neck
        {
          OFFSET 0 25.1986 1.20138
          CHANNELS 3 Zrotation Xrotation Yrotation
          JOINT Head
          {
            OFFSET 0 7.61315 0
            CHANNELS 3 Zrotation Xrotation Yrotation
            End Site
            {
              OFFSET 0 18.4281 -6.07733
            }
          }
        }
        JOINT RightShoulder
        {
          OFFSET -4.1327 10.5992 -0.575451
          CHANNELS 3 Zrotation Xrotation Yrotation
          JOINT RightArm
          {
            OFFSET 0 13.9018 0
            CHANNELS 3 Zrotation Xrotation Yrotation
            JOINT RightArmRoll
            {
              OFFSET 0 7.01788 0
              CHANNELS 3 Zrotation Xrotation Yrotation
              JOINT RightForeArm
              {
                OFFSET 0 20.4406 0
                CHANNELS 3 Zrotation Xrotation Yrotation
                JOINT RightForeArmRoll
                {
                  OFFSET 0 7.87516 0
                  CHANNELS 3 Zrotation Xrotation Yrotation
                  JOINT RightHand
                  {
                    OFFSET 0 15.8037 0
                    CHANNELS 3 Zrotation Xrotation Yrotation
                    End Site
                    {
                      OFFSET 0 0 0
                    }
                  }
                }
              }
            }
          }
        }
        JOINT LeftShoulder
        {
          OFFSET 4.1327 10.5992 -0.575451
          CHANNELS 3 Zrotation Xrotation Yrotation
          JOINT LeftArm
          {
            OFFSET 0 13.9018 0
            CHANNELS 3 Zrotation Xrotation Yrotation
            JOINT LeftArmRoll
            {
              OFFSET 0 7.01788 0
              CHANNELS 3 Zrotation Xrotation Yrotation
              JOINT LeftForeArm
              {
                OFFSET 0 20.4406 0
                CHANNELS 3 Zrotation Xrotation Yrotation
                JOINT LeftForeArmRoll
                {
                  OFFSET 0 7.87516 0
                  CHANNELS 3 Zrotation Xrotation Yrotation
                  JOINT LeftHand
                  {
                    OFFSET 0 15.8037 0
                    CHANNELS 3 Zrotation Xrotation Yrotation
                    End Site
                    {
                      OFFSET 0 0 0
                    }
                  }
                }
              }
            }
          }
        }
      }
    }
  }
  JOINT RightUpLeg
  {
    OFFSET -7.06048 -1.2947 -1.08609
    CHANNELS 3 Zrotation Xrotation Yrotation
    JOINT RightUpLegRoll
    {
      OFFSET 0 18.5308 0
      CHANNELS 3 Zrotation Xrotation Yrotation
      JOINT RightLeg
      {
        OFFSET 0 -22.9476 0
        CHANNELS 3 Zrotation Xrotation Yrotation
        JOINT RightLegRoll
        {
          OFFSET 0 23.0226 0
          CHANNELS 3 Zrotation Xrotation Yrotation
          JOINT RightFoot
          {
            OFFSET 0 19.1625 0
            CHANNELS 3 Zrotation Xrotation Yrotation
            JOINT RightToeBase
            {
              OFFSET 0 16.0188 0
              CHANNELS 3 Zrotation Xrotation Yrotation
              End Site
              {
                OFFSET 0.00678979 7.75782 -0.894206
              }
            }
          }
        }
      }
    }
  }
  JOINT LeftUpLeg
  {
    OFFSET 7.06048 -1.2947 -1.08609
    CHANNELS 3 Zrotation Xrotation Yrotation
    JOINT LeftUpLegRoll
    {
      OFFSET 0 18.5309 0
      CHANNELS 3 Zrotation Xrotation Yrotation
      JOINT LeftLeg
      {
        OFFSET 0 22.9475 0
        CHANNELS 3 Zrotation Xrotation Yrotation
        JOINT LeftLegRoll
        {
          OFFSET 0 23.2355 0
          CHANNELS 3 Zrotation Xrotation Yrotation
          JOINT LeftFoot
          {
            OFFSET 0 18.9496 0
            CHANNELS 3 Zrotation Xrotation Yrotation
            JOINT LeftToeBase
            {
              OFFSET 0 16.0188 0
              CHANNELS 3 Zrotation Xrotation Yrotation
              End Site
              {
                OFFSET -0.0304289 7.75782 -0.894207
              }
            }
          }
        }
      }
    }
  }
}
MOTION
Frames: 4
Frame Time: 0.00208333
51.8761 95.3949 18.8658 -1.31706 -2.42083 1.60382 0.201743 -1.78397 -0.0574534 0.401949 0.416131 -0.134724 0.403691 2.06118 -0.141859 3.09777 21.9048 -1.98038 -1.54704 0.816485 -1.07716 69.852 -1.69901 -2.14773 102.777 17.2703 18.9438 -9.54166e-015 -3.18055e-015 -9.54166e-015 5.73293 0.15305 -0.150047 -4.25597e-006 -2.96682e-006 -3.01119 8.02944 -4.95143 0.697668 -68.833 -0.0656533 1.23407 -106.846 13.4719 -15.1216 1.11319e-014 9.54166e-015 3.18055e-015 -7.14933 8.74532 0.419839 6.27627e-006 -1.06107e-006 3.00376 -8.02924 -4.95142 -0.697654 175.772 -1.50399 -1.86508 180 7.01501e-015 178.739 178.255 10.7988 179.496 3.29162e-006 -8.28294e-006 0.320058 -22.2199 71.5672 23.0877 8.1594 25.8622 -2.64857 -172.626 -0.490636 -0.742277 4.54188e-006 -4.6773e-006 -1.21302 -1.98691 -11.6716 0.11789 -1.86878e-007 -6.38552e-006 -0.348571 23.4567 72.5774 -24.3674 -8.13949 25.2946 3.40505 
51.8754 95.3933 18.874 -1.31998 -2.4273 1.60314 0.200668 -1.78224 -0.057541 0.399796 0.420872 -0.135228 0.401548 2.06592 -0.142301 3.12688 21.9444 -1.99196 -1.56335 0.763784 -1.07998 69.8733 -1.69815 -2.1493 102.787 17.2885 18.9393 -7.95139e-016 6.36111e-015 -0 5.72811 0.145253 -0.152129 -4.25597e-006 -2.96682e-006 -3.01114 8.02944 -4.95143 0.697668 -68.8373 -0.0531006 1.22828 -106.849 13.4763 -15.1158 3.18055e-015 1.59028e-015 -0 -7.15795 8.71284 0.418771 6.27627e-006 -1.06107e-006 3.00376 -8.02924 -4.95142 -0.697654 175.769 -1.50015 -1.84908 180 7.01501e-015 178.738 178.238 10.8284 179.498 3.29162e-006 -8.28294e-006 0.320504 -22.2307 71.5759 23.0991 8.15963 25.8654 -2.64423 -172.62 -0.488117 -0.74811 4.54188e-006 -4.6773e-006 -1.21302 -1.98648 -11.7007 0.117421 -1.86878e-007 -6.38552e-006 -0.349807 23.4787 72.594 -24.3906 -8.13952 25.295 3.40462 
51.8652 95.3869 18.8842 -1.32319 -2.43365 1.60221 0.199669 -1.78056 -0.057589 0.397792 0.425516 -0.135667 0.399554 2.07057 -0.14268 3.15649 21.9832 -2.0034 -1.58031 0.712417 -1.08256 69.8946 -1.6975 -2.15098 102.797 17.3067 18.9339 3.18055e-015 0 -0 5.72417 0.137177 -0.154151 -4.25597e-006 -2.96682e-006 -3.01105 8.02944 -4.95143 0.697668 -68.8414 -0.0409546 1.22269 -106.853 13.4782 -15.1074 -7.95139e-016 6.36111e-015 9.54166e-015 -7.16966 8.68635 0.418337 6.27627e-006 -1.06107e-006 3.00376 -8.02924 -4.95142 -0.697654 175.766 -1.49639 -1.83242 180 7.01501e-015 178.738 178.219 10.8575 179.501 3.29162e-006 -8.28294e-006 0.320883 -22.2407 71.5838 23.1096 8.15986 25.8688 -2.63967 -172.613 -0.485825 -0.754198 4.54188e-006 -4.6773e-006 -1.21302 -1.98614 -11.7292 0.116909 -1.86878e-007 -6.38552e-006 -0.351022 23.5005 72.6104 -24.4135 -8.13954 25.2953 3.40419 
51.8679 95.385 18.8954 -1.3266 -2.43989 1.60111 0.198721 -1.77893 -0.0576094 0.395895 0.430092 -0.13606 0.397665 2.07514 -0.143015 3.18646 22.0214 -2.01474 -1.59774 0.661986 -1.08497 69.9158 -1.69701 -2.15273 102.806 17.3249 18.9279 -2.38542e-015 -3.18055e-015 3.18055e-015 5.72083 0.128905 -0.156131 -4.25597e-006 -2.96682e-006 -3.01095 8.02944 -4.95143 0.697668 -68.8456 -0.0290933 1.21725 -106.857 13.4784 -15.0972 1.11319e-014 7.95139e-015 3.18055e-015 -7.18354 8.66404 0.418347 6.27627e-006 -1.06107e-006 3.00376 -8.02924 -4.95142 -0.697654 175.763 -1.49268 -1.81529 180 7.01501e-015 178.738 178.201 10.8862 179.504 3.29162e-006 -8.28294e-006 0.321217 -22.2501 71.5911 23.1195 8.16011 25.8723 -2.63495 -172.606 -0.483693 -0.760464 4.54188e-006 -4.6773e-006 -1.21302 -1.98585 -11.7574 0.116367 -1.86878e-007 -6.38552e-006 -0.352224 23.5223 72.6267 -24.4364 -8.13956 25.2957 3.40376 
